<svg xmlns="http://www.w3.org/2000/svg" style="display: none;">
    <!-- cross -->
    <symbol id="cross" viewBox="0 0 24 24">
            <path d="M19 6.41L17.59 5L12 10.59L6.41 5L5 6.41L10.59 12L5 17.59L6.41 19L12 13.41L17.59 19L19 17.59L13.41 12L19 6.41Z" />
    </symbol>

    <!-- eyeOff -->
    <symbol id="eyeOff" viewBox="0 0 24 24">
        <path d="M4.71 3.29C4.61676 3.19676 4.50607 3.1228 4.38425 3.07234C4.26243 3.02188 4.13186 2.99591 4 2.99591C3.86814 2.99591 3.73757 3.02188 3.61575 3.07234C3.49393 3.1228 3.38324 3.19676 3.29 3.29C3.10169 3.47831 2.99591 3.7337 2.99591 4C2.99591 4.2663 3.10169 4.5217 3.29 4.71L8.92 10.34C8.5638 11.0026 8.43058 11.7624 8.54009 12.5067C8.64959 13.2509 8.99599 13.9401 9.52794 14.4721C10.0599 15.004 10.7491 15.3504 11.4934 15.4599C12.2376 15.5694 12.9974 15.4362 13.66 15.08L19.29 20.71C19.383 20.8037 19.4936 20.8781 19.6154 20.9289C19.7373 20.9797 19.868 21.0058 20 21.0058C20.132 21.0058 20.2627 20.9797 20.3846 20.9289C20.5064 20.8781 20.617 20.8037 20.71 20.71C20.8037 20.617 20.8781 20.5064 20.9289 20.3846C20.9797 20.2627 21.0058 20.132 21.0058 20C21.0058 19.868 20.9797 19.7373 20.9289 19.6154C20.8781 19.4936 20.8037 19.383 20.71 19.29L4.71 3.29ZM12 13.5C11.6022 13.5 11.2206 13.342 10.9393 13.0607C10.658 12.7794 10.5 12.3978 10.5 12V11.93L12.06 13.49L12 13.5Z"/>
        <path d="M12.22 17C7.92 17.1 5.1 13.41 4.22 12C4.84647 11.0007 5.59936 10.0865 6.46 9.27999L5 7.87C3.87133 8.93347 2.90441 10.1564 2.13 11.5C2.04223 11.652 1.99603 11.8245 1.99603 12C1.99603 12.1755 2.04223 12.348 2.13 12.5C2.76 13.59 6.13 19 12.02 19H12.27C13.3775 18.9671 14.4708 18.7404 15.5 18.33L13.92 16.75C13.3644 16.8962 12.7942 16.98 12.22 17Z"/>
        <path d="M21.87 11.5C21.23 10.39 17.7 4.81999 11.73 4.99999C10.6225 5.03285 9.52924 5.25961 8.5 5.66999L10.08 7.24999C10.6356 7.10382 11.2058 7.01997 11.78 6.99999C16.07 6.88999 18.89 10.59 19.78 12C19.1381 13.0023 18.3682 13.9167 17.49 14.72L19 16.13C20.1428 15.0693 21.1234 13.8462 21.91 12.5C21.9918 12.3445 22.0311 12.1702 22.0241 11.9946C22.0171 11.8191 21.9639 11.6485 21.87 11.5Z"/>
    </symbol>

    <!-- eye -->
    <symbol id="eye" viewBox="0 0 24 24">
        <path d="M21.87 11.5C21.23 10.39 17.71 4.81999 11.73 4.99999C6.2 5.13999 3 9.99999 2.13 11.5C2.04223 11.652 1.99603 11.8245 1.99603 12C1.99603 12.1755 2.04223 12.348 2.13 12.5C2.76 13.59 6.13 19 12.02 19H12.27C17.8 18.86 21.01 14 21.87 12.5C21.9578 12.348 22.004 12.1755 22.004 12C22.004 11.8245 21.9578 11.652 21.87 11.5ZM12.22 17C7.91 17.1 5.1 13.41 4.22 12C5.22 10.39 7.83 7.09999 11.83 6.99999C16.12 6.88999 18.94 10.59 19.83 12C18.8 13.61 16.22 16.9 12.22 17Z"/>
        <path d="M12 8.5C11.3078 8.5 10.6311 8.70527 10.0555 9.08986C9.47993 9.47444 9.03133 10.0211 8.76642 10.6606C8.50152 11.3001 8.4322 12.0039 8.56725 12.6828C8.7023 13.3618 9.03564 13.9854 9.52513 14.4749C10.0146 14.9644 10.6383 15.2977 11.3172 15.4327C11.9961 15.5678 12.6999 15.4985 13.3394 15.2336C13.9789 14.9687 14.5256 14.5201 14.9101 13.9445C15.2947 13.3689 15.5 12.6922 15.5 12C15.5 11.0717 15.1313 10.1815 14.4749 9.52513C13.8185 8.86875 12.9283 8.5 12 8.5ZM12 13.5C11.7033 13.5 11.4133 13.412 11.1666 13.2472C10.92 13.0824 10.7277 12.8481 10.6142 12.574C10.5007 12.2999 10.4709 11.9983 10.5288 11.7074C10.5867 11.4164 10.7296 11.1491 10.9393 10.9393C11.1491 10.7296 11.4164 10.5867 11.7074 10.5288C11.9983 10.4709 12.2999 10.5006 12.574 10.6142C12.8481 10.7277 13.0824 10.92 13.2472 11.1666C13.412 11.4133 13.5 11.7033 13.5 12C13.5 12.3978 13.342 12.7794 13.0607 13.0607C12.7794 13.342 12.3978 13.5 12 13.5Z"/>
    </symbol>

    <!-- search -->
    <symbol id="search" viewBox="0 0 24 24">
        <path d="M20.71 19.29L17.31 15.9C18.407 14.5025 19.0022 12.7767 19 11C19 9.41775 18.5308 7.87103 17.6518 6.55544C16.7727 5.23984 15.5233 4.21446 14.0615 3.60896C12.5997 3.00346 10.9911 2.84504 9.43928 3.15372C7.88743 3.4624 6.46197 4.22433 5.34315 5.34315C4.22433 6.46197 3.4624 7.88743 3.15372 9.43928C2.84504 10.9911 3.00347 12.5997 3.60897 14.0615C4.21447 15.5233 5.23985 16.7727 6.55544 17.6518C7.87103 18.5308 9.41775 19 11 19C12.7767 19.0022 14.5025 18.407 15.9 17.31L19.29 20.71C19.383 20.8037 19.4936 20.8781 19.6154 20.9289C19.7373 20.9797 19.868 21.0058 20 21.0058C20.132 21.0058 20.2627 20.9797 20.3846 20.9289C20.5064 20.8781 20.617 20.8037 20.71 20.71C20.8037 20.617 20.8781 20.5064 20.9289 20.3846C20.9797 20.2627 21.0058 20.132 21.0058 20C21.0058 19.868 20.9797 19.7373 20.9289 19.6154C20.8781 19.4936 20.8037 19.383 20.71 19.29ZM5 11C5 9.81331 5.3519 8.65327 6.01119 7.66658C6.67047 6.67988 7.60755 5.91085 8.7039 5.45672C9.80026 5.0026 11.0067 4.88378 12.1705 5.11529C13.3344 5.3468 14.4035 5.91824 15.2426 6.75736C16.0818 7.59647 16.6532 8.66557 16.8847 9.82946C17.1162 10.9933 16.9974 12.1997 16.5433 13.2961C16.0892 14.3925 15.3201 15.3295 14.3334 15.9888C13.3467 16.6481 12.1867 17 11 17C9.4087 17 7.88258 16.3679 6.75736 15.2426C5.63214 14.1174 5 12.5913 5 11Z"/>
    </symbol>

    <!-- select -->
    <symbol id="arrowDown" viewBox="0 0 24 24">
          <path d="M19.5416 14.5142C19.542 14.7478 19.4606 14.9742 19.3116 15.1542C19.2276 15.2554 19.1245 15.3391 19.0082 15.4005C18.8918 15.4618 18.7645 15.4996 18.6335 15.5117C18.5026 15.5238 18.3705 15.5099 18.2449 15.4708C18.1193 15.4318 18.0026 15.3684 17.9016 15.2842L12.5416 10.8042L7.17157 15.1242C7.06928 15.2072 6.95158 15.2693 6.82524 15.3067C6.6989 15.3441 6.56641 15.3562 6.43538 15.3423C6.30436 15.3283 6.17737 15.2886 6.06174 15.2255C5.9461 15.1623 5.84409 15.0769 5.76157 14.9742C5.67053 14.8707 5.60186 14.7495 5.55987 14.6183C5.51788 14.487 5.50348 14.3485 5.51757 14.2114C5.53165 14.0743 5.57392 13.9416 5.64172 13.8216C5.70952 13.7016 5.80139 13.5969 5.91157 13.5142L11.9116 8.68415C12.0905 8.53707 12.3149 8.45667 12.5466 8.45667C12.7782 8.45667 13.0026 8.53707 13.1816 8.68415L19.1816 13.6842C19.3026 13.7845 19.3982 13.9119 19.4608 14.0561C19.5233 14.2003 19.551 14.3572 19.5416 14.5142Z"/>
    </symbol>

    <!-- checked -->
    <symbol id="checked" viewBox="0 0 24 24">
        <path d="M16 0H2a2 2 0 00-2 2v14a2 2 0 002 2h14a2 2 0 002-2V2a2 2 0 00-2-2zM7 14L2 9l1.41-1.41L7 11.17l7.59-7.59L16 5l-9 9z"/>
    </symbol>

    <!-- user -->
    <symbol id="user" viewBox="0 0 24 24">
        <path d="M12 11C12.7911 11 13.5645 10.7654 14.2223 10.3259C14.8801 9.88635 15.3928 9.26164 15.6955 8.53074C15.9983 7.79983 16.0775 6.99556 15.9231 6.21964C15.7688 5.44372 15.3878 4.73098 14.8284 4.17157C14.269 3.61216 13.5563 3.2312 12.7804 3.07686C12.0044 2.92252 11.2002 3.00173 10.4693 3.30448C9.73836 3.60723 9.11365 4.11992 8.67412 4.77772C8.2346 5.43552 8 6.20888 8 7C8 8.06087 8.42143 9.07828 9.17157 9.82843C9.92172 10.5786 10.9391 11 12 11ZM12 5C12.3956 5 12.7822 5.1173 13.1111 5.33706C13.44 5.55683 13.6964 5.86918 13.8478 6.23463C13.9991 6.60009 14.0387 7.00222 13.9616 7.39018C13.8844 7.77814 13.6939 8.13451 13.4142 8.41422C13.1345 8.69392 12.7781 8.8844 12.3902 8.96157C12.0022 9.03874 11.6001 8.99914 11.2346 8.84776C10.8692 8.69639 10.5568 8.44004 10.3371 8.11114C10.1173 7.78224 10 7.39556 10 7C10 6.46957 10.2107 5.96086 10.5858 5.58579C10.9609 5.21072 11.4696 5 12 5Z"/>
        <path d="M12 13C10.1435 13 8.36301 13.7375 7.05025 15.0503C5.7375 16.363 5 18.1435 5 20C5 20.2652 5.10536 20.5196 5.29289 20.7071C5.48043 20.8946 5.73478 21 6 21C6.26522 21 6.51957 20.8946 6.70711 20.7071C6.89464 20.5196 7 20.2652 7 20C7 18.6739 7.52678 17.4021 8.46447 16.4645C9.40215 15.5268 10.6739 15 12 15C13.3261 15 14.5979 15.5268 15.5355 16.4645C16.4732 17.4021 17 18.6739 17 20C17 20.2652 17.1054 20.5196 17.2929 20.7071C17.4804 20.8946 17.7348 21 18 21C18.2652 21 18.5196 20.8946 18.7071 20.7071C18.8946 20.5196 19 20.2652 19 20C19 18.1435 18.2625 16.363 16.9497 15.0503C15.637 13.7375 13.8565 13 12 13Z"/>
    </symbol>

    <!-- logout -->
    <symbol id="logout" viewBox="0 0 24 24">
        <path d="M7 6C7.26522 6 7.51957 5.89464 7.70711 5.70711C7.89464 5.51957 8 5.26522 8 5C8 4.73478 7.89464 4.48043 7.70711 4.29289C7.51957 4.10536 7.26522 4 7 4H5C4.73478 4 4.48043 4.10536 4.29289 4.29289C4.10536 4.48043 4 4.73478 4 5V19C4 19.2652 4.10536 19.5196 4.29289 19.7071C4.48043 19.8946 4.73478 20 5 20H7C7.26522 20 7.51957 19.8946 7.70711 19.7071C7.89464 19.5196 8 19.2652 8 19C8 18.7348 7.89464 18.4804 7.70711 18.2929C7.51957 18.1054 7.26522 18 7 18H6V6H7Z"/>
        <path d="M20.82 11.42L18 7.42C17.8471 7.20441 17.615 7.05814 17.3545 7.01317C17.0941 6.9682 16.8264 7.02818 16.61 7.18C16.5018 7.25579 16.4098 7.35224 16.3391 7.46381C16.2684 7.57537 16.2206 7.69982 16.1982 7.82999C16.1759 7.96015 16.1796 8.09344 16.2091 8.22217C16.2386 8.3509 16.2933 8.47252 16.37 8.58L18.09 11H10C9.73478 11 9.48043 11.1054 9.29289 11.2929C9.10536 11.4804 9 11.7348 9 12C9 12.2652 9.10536 12.5196 9.29289 12.7071C9.48043 12.8946 9.73478 13 10 13H18L16.2 15.4C16.1212 15.5051 16.0639 15.6246 16.0313 15.7518C15.9987 15.879 15.9915 16.0114 16.01 16.1414C16.0286 16.2714 16.0726 16.3965 16.1395 16.5095C16.2064 16.6225 16.2949 16.7212 16.4 16.8C16.5731 16.9298 16.7836 17 17 17C17.1552 17 17.3084 16.9639 17.4472 16.8944C17.5861 16.825 17.7069 16.7242 17.8 16.6L20.8 12.6C20.9281 12.4309 20.999 12.2254 21.0026 12.0133C21.0062 11.8011 20.9423 11.5934 20.82 11.42Z"/>
    </symbol>

    <!-- delete -->
    <symbol id="delete" viewBox="0 0 24 24">
        <path d="M21 6H16V4.33C15.9765 3.68982 15.7002 3.08506 15.2316 2.64829C14.7629 2.21153 14.1402 1.97839 13.5 2H10.5C9.85975 1.97839 9.23706 2.21153 8.76843 2.64829C8.2998 3.08506 8.02346 3.68982 8 4.33V6H3C2.73478 6 2.48043 6.10536 2.29289 6.29289C2.10536 6.48043 2 6.73479 2 7C2 7.26522 2.10536 7.51957 2.29289 7.70711C2.48043 7.89464 2.73478 8 3 8H4V19C4 19.7957 4.31607 20.5587 4.87868 21.1213C5.44129 21.6839 6.20435 22 7 22H17C17.7956 22 18.5587 21.6839 19.1213 21.1213C19.6839 20.5587 20 19.7957 20 19V8H21C21.2652 8 21.5196 7.89464 21.7071 7.70711C21.8946 7.51957 22 7.26522 22 7C22 6.73479 21.8946 6.48043 21.7071 6.29289C21.5196 6.10536 21.2652 6 21 6ZM10 4.33C10 4.17 10.21 4 10.5 4H13.5C13.79 4 14 4.17 14 4.33V6H10V4.33ZM18 19C18 19.2652 17.8946 19.5196 17.7071 19.7071C17.5196 19.8946 17.2652 20 17 20H7C6.73478 20 6.48043 19.8946 6.29289 19.7071C6.10536 19.5196 6 19.2652 6 19V8H18V19Z"/>
    </symbol>

    <!-- edit -->
    <symbol id="edit" viewBox="0 0 16 16">
        <g clip-path="url(#clip0_200_1081)">
            <path d="M12.6666 13.3333H3.33329C3.15648 13.3333 2.98691 13.4036 2.86189 13.5286C2.73686 13.6536 2.66663 13.8232 2.66663 14C2.66663 14.1768 2.73686 14.3464 2.86189 14.4714C2.98691 14.5964 3.15648 14.6666 3.33329 14.6666H12.6666C12.8434 14.6666 13.013 14.5964 13.138 14.4714C13.2631 14.3464 13.3333 14.1768 13.3333 14C13.3333 13.8232 13.2631 13.6536 13.138 13.5286C13.013 13.4036 12.8434 13.3333 12.6666 13.3333Z" />
            <path d="M3.33329 12H3.39329L6.17329 11.7467C6.47782 11.7163 6.76264 11.5821 6.97995 11.3667L12.98 5.36665C13.2128 5.12063 13.3387 4.79233 13.3299 4.45368C13.3212 4.11503 13.1786 3.79366 12.9333 3.55999L11.1066 1.73332C10.8682 1.50938 10.5558 1.38089 10.2288 1.37229C9.90187 1.36368 9.58314 1.47557 9.33329 1.68665L3.33329 7.68665C3.1178 7.90396 2.98362 8.18879 2.95329 8.49332L2.66662 11.2733C2.65764 11.371 2.67031 11.4694 2.70373 11.5616C2.73715 11.6538 2.79049 11.7374 2.85995 11.8067C2.92225 11.8684 2.99612 11.9173 3.07735 11.9505C3.15857 11.9837 3.24555 12.0005 3.33329 12ZM10.18 2.66665L12 4.48665L10.6666 5.78665L8.87995 3.99999L10.18 2.66665ZM4.24662 8.60665L7.99995 4.87999L9.79995 6.67999L6.06662 10.4133L4.06662 10.6L4.24662 8.60665Z" />
        </g>
    </symbol>

    <!-- play -->
    <symbol id="play" viewBox="0 0 16 16">
        <g clip-path="url(#clip0_220_1090)">
            <path d="M8.00004 1.33337C6.6815 1.33337 5.39257 1.72437 4.29624 2.45691C3.19991 3.18945 2.34543 4.23064 1.84085 5.44882C1.33626 6.66699 1.20424 8.00744 1.46148 9.30064C1.71871 10.5938 2.35365 11.7817 3.286 12.7141C4.21835 13.6464 5.40624 14.2814 6.69944 14.5386C7.99265 14.7958 9.33309 14.6638 10.5513 14.1592C11.7694 13.6547 12.8106 12.8002 13.5432 11.7038C14.2757 10.6075 14.6667 9.31858 14.6667 8.00004C14.6667 7.12456 14.4943 6.25766 14.1592 5.44882C13.8242 4.63998 13.3331 3.90505 12.7141 3.286C12.095 2.66694 11.3601 2.17588 10.5513 1.84084C9.74243 1.50581 8.87552 1.33337 8.00004 1.33337ZM8.00004 13.3334C6.94521 13.3334 5.91406 13.0206 5.037 12.4345C4.15994 11.8485 3.47635 11.0156 3.07269 10.041C2.66902 9.06648 2.5634 7.99412 2.76919 6.95956C2.97498 5.92499 3.48293 4.97468 4.22881 4.2288C4.97469 3.48292 5.925 2.97497 6.95956 2.76919C7.99413 2.5634 9.06648 2.66902 10.041 3.07268C11.0156 3.47635 11.8485 4.15994 12.4345 5.037C13.0206 5.91406 13.3334 6.94521 13.3334 8.00004C13.3334 9.41453 12.7715 10.7711 11.7713 11.7713C10.7711 12.7715 9.41453 13.3334 8.00004 13.3334Z"/>
            <path d="M8.22666 4.96667C8.06331 4.81613 7.85932 4.71692 7.64004 4.68136C7.42077 4.6458 7.19588 4.67547 6.99333 4.76667C6.7967 4.84621 6.62825 4.98257 6.5095 5.15832C6.39075 5.33407 6.32709 5.54123 6.32666 5.75334V10.2467C6.32709 10.4588 6.39075 10.6659 6.5095 10.8417C6.62825 11.0174 6.7967 11.1538 6.99333 11.2333C7.13784 11.2989 7.29464 11.333 7.45333 11.3333C7.73927 11.3321 8.01467 11.2252 8.22666 11.0333L10.6667 8.78667C10.7758 8.68674 10.8629 8.56519 10.9226 8.42976C10.9822 8.29433 11.013 8.14798 11.013 8C11.013 7.85203 10.9822 7.70568 10.9226 7.57025C10.8629 7.43482 10.7758 7.31327 10.6667 7.21334L8.22666 4.96667ZM7.66666 9.73334V6.26667L9.53999 8L7.66666 9.73334Z"/>
        </g>
    </symbol>

    <!-- more -->
    <symbol id="more" viewBox="0 0 20 20">
        <g clip-path="url(#clip0_229_2123)">
            <path d="M10 0C4.5 0 0 4.5 0 10C0 15.5 4.5 20 10 20C15.5 20 20 15.5 20 10C20 4.5 15.5 0 10 0ZM10 18.8C5.1 18.8 1.2 14.8 1.2 10C1.2 5.1 5.2 1.2 10 1.2C14.8 1.2 18.8 5.2 18.8 10C18.8 14.9 14.9 18.8 10 18.8Z" fill="white"/>
            <path d="M10 11.1C10.6075 11.1 11.1 10.6075 11.1 9.99999C11.1 9.39248 10.6075 8.89999 10 8.89999C9.39251 8.89999 8.90002 9.39248 8.90002 9.99999C8.90002 10.6075 9.39251 11.1 10 11.1Z" fill="white"/>
            <path d="M10 6.49999C10.6075 6.49999 11.1 6.0075 11.1 5.39999C11.1 4.79247 10.6075 4.29999 10 4.29999C9.39251 4.29999 8.90002 4.79247 8.90002 5.39999C8.90002 6.0075 9.39251 6.49999 10 6.49999Z" fill="white"/>
            <path d="M10 15.7C10.6075 15.7 11.1 15.2075 11.1 14.6C11.1 13.9925 10.6075 13.5 10 13.5C9.39251 13.5 8.90002 13.9925 8.90002 14.6C8.90002 15.2075 9.39251 15.7 10 15.7Z" fill="white"/>
        </g>
    </symbol>

    <!-- trash bin -->
    <symbol id="trash-bin" viewBox="0 0 16 16">
        <g clip-path="url(#clip0_200_1087)">
            <path d="M14 3.99998H10.6667V2.88665C10.6511 2.45986 10.4668 2.05669 10.1544 1.76551C9.842 1.47433 9.42687 1.31891 9.00004 1.33332H7.00004C6.57321 1.31891 6.15808 1.47433 5.84566 1.76551C5.53324 2.05669 5.34901 2.45986 5.33337 2.88665V3.99998H2.00004C1.82323 3.99998 1.65366 4.07022 1.52864 4.19525C1.40361 4.32027 1.33337 4.48984 1.33337 4.66665C1.33337 4.84346 1.40361 5.01303 1.52864 5.13805C1.65366 5.26308 1.82323 5.33332 2.00004 5.33332H2.66671V12.6666C2.66671 13.1971 2.87742 13.7058 3.25249 14.0809C3.62757 14.4559 4.13627 14.6666 4.66671 14.6666H11.3334C11.8638 14.6666 12.3725 14.4559 12.7476 14.0809C13.1227 13.7058 13.3334 13.1971 13.3334 12.6666V5.33332H14C14.1769 5.33332 14.3464 5.26308 14.4714 5.13805C14.5965 5.01303 14.6667 4.84346 14.6667 4.66665C14.6667 4.48984 14.5965 4.32027 14.4714 4.19525C14.3464 4.07022 14.1769 3.99998 14 3.99998ZM6.66671 2.88665C6.66671 2.77998 6.80671 2.66665 7.00004 2.66665H9.00004C9.19337 2.66665 9.33337 2.77998 9.33337 2.88665V3.99998H6.66671V2.88665ZM12 12.6666C12 12.8435 11.9298 13.013 11.8048 13.1381C11.6798 13.2631 11.5102 13.3333 11.3334 13.3333H4.66671C4.4899 13.3333 4.32033 13.2631 4.1953 13.1381C4.07028 13.013 4.00004 12.8435 4.00004 12.6666V5.33332H12V12.6666Z"/>
        </g>
    </symbol>

    <!-- arrow back -->
    <symbol id="arrow-back" viewBox="0 0 16 16">
        <g clip-path="url(#clip0_5928_12555)">
            <path d="M12.6667 7.33335H4.76008L7.18008 4.42669C7.29324 4.29054 7.34768 4.11502 7.33143 3.93874C7.31518 3.76245 7.22956 3.59985 7.09341 3.48669C6.95727 3.37353 6.78175 3.31909 6.60547 3.33534C6.42918 3.35159 6.26657 3.43721 6.15341 3.57335L2.82008 7.57335C2.79766 7.60517 2.7776 7.63859 2.76008 7.67335C2.76008 7.70669 2.76008 7.72669 2.71341 7.76002C2.6832 7.83646 2.66738 7.91783 2.66675 8.00002C2.66738 8.08221 2.6832 8.16358 2.71341 8.24002C2.71341 8.27335 2.71341 8.29335 2.76008 8.32669C2.7776 8.36145 2.79766 8.39487 2.82008 8.42669L6.15341 12.4267C6.2161 12.5019 6.29459 12.5625 6.38331 12.6039C6.47203 12.6454 6.56881 12.6668 6.66675 12.6667C6.82252 12.667 6.97347 12.6127 7.09341 12.5134C7.16092 12.4574 7.21672 12.3887 7.25762 12.3111C7.29852 12.2335 7.32372 12.1487 7.33177 12.0613C7.33982 11.974 7.33057 11.886 7.30454 11.8022C7.27851 11.7185 7.23622 11.6407 7.18008 11.5734L4.76008 8.66669H12.6667C12.8436 8.66669 13.0131 8.59645 13.1382 8.47143C13.2632 8.3464 13.3334 8.17683 13.3334 8.00002C13.3334 7.82321 13.2632 7.65364 13.1382 7.52862C13.0131 7.40359 12.8436 7.33335 12.6667 7.33335Z" />
        </g>
    </symbol>

    <!-- star -->
    <symbol id="star" viewBox="0 0 24 24">
        <path d="M17.56 21C17.4001 21.0006 17.2423 20.9629 17.1 20.89L12 18.22L6.9 20.89C6.73439 20.9771 6.54768 21.016 6.36108 21.0022C6.17448 20.9884 5.99548 20.9226 5.84443 20.8122C5.69338 20.7018 5.57634 20.5512 5.50661 20.3776C5.43689 20.2039 5.41727 20.0142 5.45 19.83L6.45 14.2L2.33 10.2C2.20146 10.0717 2.11027 9.91087 2.06623 9.73469C2.02218 9.55852 2.02694 9.37367 2.08 9.2C2.13796 9.02227 2.24458 8.86435 2.38775 8.74416C2.53092 8.62396 2.70492 8.5463 2.89 8.52L8.59 7.69L11.1 2.56C11.1819 2.39093 11.3097 2.24834 11.4689 2.14857C11.6281 2.0488 11.8121 1.99589 12 1.99589C12.1879 1.99589 12.3719 2.0488 12.5311 2.14857C12.6903 2.24834 12.8181 2.39093 12.9 2.56L15.44 7.68L21.14 8.51C21.3251 8.5363 21.4991 8.61396 21.6423 8.73416C21.7854 8.85435 21.892 9.01227 21.95 9.19C22.0031 9.36367 22.0078 9.54852 21.9638 9.72469C21.9197 9.90087 21.8285 10.0617 21.7 10.19L17.58 14.19L18.58 19.82C18.6157 20.0075 18.597 20.2013 18.5261 20.3784C18.4552 20.5556 18.3351 20.7089 18.18 20.82C17.9989 20.9469 17.7809 21.0102 17.56 21Z"/>
    </symbol>

    <!-- image -->
    <symbol id="image" viewBox="0 0 16 16">
        <g clip-path="url(#clip0_265_1948)">
            <path d="M12.5 2H4.5C3.96957 2 3.46086 2.21071 3.08579 2.58579C2.71071 2.96086 2.5 3.46957 2.5 4V12C2.5 12.5304 2.71071 13.0391 3.08579 13.4142C3.46086 13.7893 3.96957 14 4.5 14H12.5C13.0304 14 13.5391 13.7893 13.9142 13.4142C14.2893 13.0391 14.5 12.5304 14.5 12V4C14.5 3.46957 14.2893 2.96086 13.9142 2.58579C13.5391 2.21071 13.0304 2 12.5 2ZM4.5 3.33333H12.5C12.6768 3.33333 12.8464 3.40357 12.9714 3.5286C13.0964 3.65362 13.1667 3.82319 13.1667 4V9.57333L11.0333 7.75333C10.7028 7.48136 10.288 7.33266 9.86 7.33266C9.43195 7.33266 9.0172 7.48136 8.68667 7.75333L3.83333 11.8V4C3.83333 3.82319 3.90357 3.65362 4.0286 3.5286C4.15362 3.40357 4.32319 3.33333 4.5 3.33333ZM12.5 12.6667H4.87333L9.54 8.77333C9.62965 8.70677 9.73834 8.67083 9.85 8.67083C9.96166 8.67083 10.0704 8.70677 10.16 8.77333L13.1667 11.3333V12C13.1667 12.1768 13.0964 12.3464 12.9714 12.4714C12.8464 12.5964 12.6768 12.6667 12.5 12.6667Z" />
            <path d="M5.83333 6.66675C6.38561 6.66675 6.83333 6.21903 6.83333 5.66675C6.83333 5.11446 6.38561 4.66675 5.83333 4.66675C5.28104 4.66675 4.83333 5.11446 4.83333 5.66675C4.83333 6.21903 5.28104 6.66675 5.83333 6.66675Z" />
        </g>
    </symbol>
</svg>
