<svg xmlns="http://www.w3.org/2000/svg" style="display: none;">
    <!-- cross -->
    <symbol id="cross" viewBox="0 0 24 24">
            <path d="M19 6.41L17.59 5L12 10.59L6.41 5L5 6.41L10.59 12L5 17.59L6.41 19L12 13.41L17.59 19L19 17.59L13.41 12L19 6.41Z" />
    </symbol>

    <!-- eyeOff -->
    <symbol id="eyeOff" viewBox="0 0 24 24">
        <path d="M4.71 3.29C4.61676 3.19676 4.50607 3.1228 4.38425 3.07234C4.26243 3.02188 4.13186 2.99591 4 2.99591C3.86814 2.99591 3.73757 3.02188 3.61575 3.07234C3.49393 3.1228 3.38324 3.19676 3.29 3.29C3.10169 3.47831 2.99591 3.7337 2.99591 4C2.99591 4.2663 3.10169 4.5217 3.29 4.71L8.92 10.34C8.5638 11.0026 8.43058 11.7624 8.54009 12.5067C8.64959 13.2509 8.99599 13.9401 9.52794 14.4721C10.0599 15.004 10.7491 15.3504 11.4934 15.4599C12.2376 15.5694 12.9974 15.4362 13.66 15.08L19.29 20.71C19.383 20.8037 19.4936 20.8781 19.6154 20.9289C19.7373 20.9797 19.868 21.0058 20 21.0058C20.132 21.0058 20.2627 20.9797 20.3846 20.9289C20.5064 20.8781 20.617 20.8037 20.71 20.71C20.8037 20.617 20.8781 20.5064 20.9289 20.3846C20.9797 20.2627 21.0058 20.132 21.0058 20C21.0058 19.868 20.9797 19.7373 20.9289 19.6154C20.8781 19.4936 20.8037 19.383 20.71 19.29L4.71 3.29ZM12 13.5C11.6022 13.5 11.2206 13.342 10.9393 13.0607C10.658 12.7794 10.5 12.3978 10.5 12V11.93L12.06 13.49L12 13.5Z"/>
        <path d="M12.22 17C7.92 17.1 5.1 13.41 4.22 12C4.84647 11.0007 5.59936 10.0865 6.46 9.27999L5 7.87C3.87133 8.93347 2.90441 10.1564 2.13 11.5C2.04223 11.652 1.99603 11.8245 1.99603 12C1.99603 12.1755 2.04223 12.348 2.13 12.5C2.76 13.59 6.13 19 12.02 19H12.27C13.3775 18.9671 14.4708 18.7404 15.5 18.33L13.92 16.75C13.3644 16.8962 12.7942 16.98 12.22 17Z"/>
        <path d="M21.87 11.5C21.23 10.39 17.7 4.81999 11.73 4.99999C10.6225 5.03285 9.52924 5.25961 8.5 5.66999L10.08 7.24999C10.6356 7.10382 11.2058 7.01997 11.78 6.99999C16.07 6.88999 18.89 10.59 19.78 12C19.1381 13.0023 18.3682 13.9167 17.49 14.72L19 16.13C20.1428 15.0693 21.1234 13.8462 21.91 12.5C21.9918 12.3445 22.0311 12.1702 22.0241 11.9946C22.0171 11.8191 21.9639 11.6485 21.87 11.5Z"/>
    </symbol>

    <!-- eye -->
    <symbol id="eye" viewBox="0 0 24 24">
        <path d="M21.87 11.5C21.23 10.39 17.71 4.81999 11.73 4.99999C6.2 5.13999 3 9.99999 2.13 11.5C2.04223 11.652 1.99603 11.8245 1.99603 12C1.99603 12.1755 2.04223 12.348 2.13 12.5C2.76 13.59 6.13 19 12.02 19H12.27C17.8 18.86 21.01 14 21.87 12.5C21.9578 12.348 22.004 12.1755 22.004 12C22.004 11.8245 21.9578 11.652 21.87 11.5ZM12.22 17C7.91 17.1 5.1 13.41 4.22 12C5.22 10.39 7.83 7.09999 11.83 6.99999C16.12 6.88999 18.94 10.59 19.83 12C18.8 13.61 16.22 16.9 12.22 17Z"/>
        <path d="M12 8.5C11.3078 8.5 10.6311 8.70527 10.0555 9.08986C9.47993 9.47444 9.03133 10.0211 8.76642 10.6606C8.50152 11.3001 8.4322 12.0039 8.56725 12.6828C8.7023 13.3618 9.03564 13.9854 9.52513 14.4749C10.0146 14.9644 10.6383 15.2977 11.3172 15.4327C11.9961 15.5678 12.6999 15.4985 13.3394 15.2336C13.9789 14.9687 14.5256 14.5201 14.9101 13.9445C15.2947 13.3689 15.5 12.6922 15.5 12C15.5 11.0717 15.1313 10.1815 14.4749 9.52513C13.8185 8.86875 12.9283 8.5 12 8.5ZM12 13.5C11.7033 13.5 11.4133 13.412 11.1666 13.2472C10.92 13.0824 10.7277 12.8481 10.6142 12.574C10.5007 12.2999 10.4709 11.9983 10.5288 11.7074C10.5867 11.4164 10.7296 11.1491 10.9393 10.9393C11.1491 10.7296 11.4164 10.5867 11.7074 10.5288C11.9983 10.4709 12.2999 10.5006 12.574 10.6142C12.8481 10.7277 13.0824 10.92 13.2472 11.1666C13.412 11.4133 13.5 11.7033 13.5 12C13.5 12.3978 13.342 12.7794 13.0607 13.0607C12.7794 13.342 12.3978 13.5 12 13.5Z"/>
    </symbol>

    <!-- search -->
    <symbol id="search" viewBox="0 0 24 24">
        <path d="M20.71 19.29L17.31 15.9C18.407 14.5025 19.0022 12.7767 19 11C19 9.41775 18.5308 7.87103 17.6518 6.55544C16.7727 5.23984 15.5233 4.21446 14.0615 3.60896C12.5997 3.00346 10.9911 2.84504 9.43928 3.15372C7.88743 3.4624 6.46197 4.22433 5.34315 5.34315C4.22433 6.46197 3.4624 7.88743 3.15372 9.43928C2.84504 10.9911 3.00347 12.5997 3.60897 14.0615C4.21447 15.5233 5.23985 16.7727 6.55544 17.6518C7.87103 18.5308 9.41775 19 11 19C12.7767 19.0022 14.5025 18.407 15.9 17.31L19.29 20.71C19.383 20.8037 19.4936 20.8781 19.6154 20.9289C19.7373 20.9797 19.868 21.0058 20 21.0058C20.132 21.0058 20.2627 20.9797 20.3846 20.9289C20.5064 20.8781 20.617 20.8037 20.71 20.71C20.8037 20.617 20.8781 20.5064 20.9289 20.3846C20.9797 20.2627 21.0058 20.132 21.0058 20C21.0058 19.868 20.9797 19.7373 20.9289 19.6154C20.8781 19.4936 20.8037 19.383 20.71 19.29ZM5 11C5 9.81331 5.3519 8.65327 6.01119 7.66658C6.67047 6.67988 7.60755 5.91085 8.7039 5.45672C9.80026 5.0026 11.0067 4.88378 12.1705 5.11529C13.3344 5.3468 14.4035 5.91824 15.2426 6.75736C16.0818 7.59647 16.6532 8.66557 16.8847 9.82946C17.1162 10.9933 16.9974 12.1997 16.5433 13.2961C16.0892 14.3925 15.3201 15.3295 14.3334 15.9888C13.3467 16.6481 12.1867 17 11 17C9.4087 17 7.88258 16.3679 6.75736 15.2426C5.63214 14.1174 5 12.5913 5 11Z"/>
    </symbol>

    <!-- select -->
    <symbol id="arrowDown" viewBox="0 0 24 24">
          <path d="M19.5416 14.5142C19.542 14.7478 19.4606 14.9742 19.3116 15.1542C19.2276 15.2554 19.1245 15.3391 19.0082 15.4005C18.8918 15.4618 18.7645 15.4996 18.6335 15.5117C18.5026 15.5238 18.3705 15.5099 18.2449 15.4708C18.1193 15.4318 18.0026 15.3684 17.9016 15.2842L12.5416 10.8042L7.17157 15.1242C7.06928 15.2072 6.95158 15.2693 6.82524 15.3067C6.6989 15.3441 6.56641 15.3562 6.43538 15.3423C6.30436 15.3283 6.17737 15.2886 6.06174 15.2255C5.9461 15.1623 5.84409 15.0769 5.76157 14.9742C5.67053 14.8707 5.60186 14.7495 5.55987 14.6183C5.51788 14.487 5.50348 14.3485 5.51757 14.2114C5.53165 14.0743 5.57392 13.9416 5.64172 13.8216C5.70952 13.7016 5.80139 13.5969 5.91157 13.5142L11.9116 8.68415C12.0905 8.53707 12.3149 8.45667 12.5466 8.45667C12.7782 8.45667 13.0026 8.53707 13.1816 8.68415L19.1816 13.6842C19.3026 13.7845 19.3982 13.9119 19.4608 14.0561C19.5233 14.2003 19.551 14.3572 19.5416 14.5142Z"/>
    </symbol>

    <!-- checked -->
    <symbol id="checked" viewBox="0 0 24 24">
        <path d="M16 0H2a2 2 0 00-2 2v14a2 2 0 002 2h14a2 2 0 002-2V2a2 2 0 00-2-2zM7 14L2 9l1.41-1.41L7 11.17l7.59-7.59L16 5l-9 9z"/>
    </symbol>

    <!-- user -->
    <symbol id="user" viewBox="0 0 24 24">
        <path d="M12 11C12.7911 11 13.5645 10.7654 14.2223 10.3259C14.8801 9.88635 15.3928 9.26164 15.6955 8.53074C15.9983 7.79983 16.0775 6.99556 15.9231 6.21964C15.7688 5.44372 15.3878 4.73098 14.8284 4.17157C14.269 3.61216 13.5563 3.2312 12.7804 3.07686C12.0044 2.92252 11.2002 3.00173 10.4693 3.30448C9.73836 3.60723 9.11365 4.11992 8.67412 4.77772C8.2346 5.43552 8 6.20888 8 7C8 8.06087 8.42143 9.07828 9.17157 9.82843C9.92172 10.5786 10.9391 11 12 11ZM12 5C12.3956 5 12.7822 5.1173 13.1111 5.33706C13.44 5.55683 13.6964 5.86918 13.8478 6.23463C13.9991 6.60009 14.0387 7.00222 13.9616 7.39018C13.8844 7.77814 13.6939 8.13451 13.4142 8.41422C13.1345 8.69392 12.7781 8.8844 12.3902 8.96157C12.0022 9.03874 11.6001 8.99914 11.2346 8.84776C10.8692 8.69639 10.5568 8.44004 10.3371 8.11114C10.1173 7.78224 10 7.39556 10 7C10 6.46957 10.2107 5.96086 10.5858 5.58579C10.9609 5.21072 11.4696 5 12 5Z"/>
        <path d="M12 13C10.1435 13 8.36301 13.7375 7.05025 15.0503C5.7375 16.363 5 18.1435 5 20C5 20.2652 5.10536 20.5196 5.29289 20.7071C5.48043 20.8946 5.73478 21 6 21C6.26522 21 6.51957 20.8946 6.70711 20.7071C6.89464 20.5196 7 20.2652 7 20C7 18.6739 7.52678 17.4021 8.46447 16.4645C9.40215 15.5268 10.6739 15 12 15C13.3261 15 14.5979 15.5268 15.5355 16.4645C16.4732 17.4021 17 18.6739 17 20C17 20.2652 17.1054 20.5196 17.2929 20.7071C17.4804 20.8946 17.7348 21 18 21C18.2652 21 18.5196 20.8946 18.7071 20.7071C18.8946 20.5196 19 20.2652 19 20C19 18.1435 18.2625 16.363 16.9497 15.0503C15.637 13.7375 13.8565 13 12 13Z"/>
    </symbol>

    <!-- logout -->
    <symbol id="logout" viewBox="0 0 24 24">
        <path d="M7 6C7.26522 6 7.51957 5.89464 7.70711 5.70711C7.89464 5.51957 8 5.26522 8 5C8 4.73478 7.89464 4.48043 7.70711 4.29289C7.51957 4.10536 7.26522 4 7 4H5C4.73478 4 4.48043 4.10536 4.29289 4.29289C4.10536 4.48043 4 4.73478 4 5V19C4 19.2652 4.10536 19.5196 4.29289 19.7071C4.48043 19.8946 4.73478 20 5 20H7C7.26522 20 7.51957 19.8946 7.70711 19.7071C7.89464 19.5196 8 19.2652 8 19C8 18.7348 7.89464 18.4804 7.70711 18.2929C7.51957 18.1054 7.26522 18 7 18H6V6H7Z"/>
        <path d="M20.82 11.42L18 7.42C17.8471 7.20441 17.615 7.05814 17.3545 7.01317C17.0941 6.9682 16.8264 7.02818 16.61 7.18C16.5018 7.25579 16.4098 7.35224 16.3391 7.46381C16.2684 7.57537 16.2206 7.69982 16.1982 7.82999C16.1759 7.96015 16.1796 8.09344 16.2091 8.22217C16.2386 8.3509 16.2933 8.47252 16.37 8.58L18.09 11H10C9.73478 11 9.48043 11.1054 9.29289 11.2929C9.10536 11.4804 9 11.7348 9 12C9 12.2652 9.10536 12.5196 9.29289 12.7071C9.48043 12.8946 9.73478 13 10 13H18L16.2 15.4C16.1212 15.5051 16.0639 15.6246 16.0313 15.7518C15.9987 15.879 15.9915 16.0114 16.01 16.1414C16.0286 16.2714 16.0726 16.3965 16.1395 16.5095C16.2064 16.6225 16.2949 16.7212 16.4 16.8C16.5731 16.9298 16.7836 17 17 17C17.1552 17 17.3084 16.9639 17.4472 16.8944C17.5861 16.825 17.7069 16.7242 17.8 16.6L20.8 12.6C20.9281 12.4309 20.999 12.2254 21.0026 12.0133C21.0062 11.8011 20.9423 11.5934 20.82 11.42Z"/>
    </symbol>

    <!-- delete -->
    <symbol id="delete" viewBox="0 0 24 24">
        <path d="M21 6H16V4.33C15.9765 3.68982 15.7002 3.08506 15.2316 2.64829C14.7629 2.21153 14.1402 1.97839 13.5 2H10.5C9.85975 1.97839 9.23706 2.21153 8.76843 2.64829C8.2998 3.08506 8.02346 3.68982 8 4.33V6H3C2.73478 6 2.48043 6.10536 2.29289 6.29289C2.10536 6.48043 2 6.73479 2 7C2 7.26522 2.10536 7.51957 2.29289 7.70711C2.48043 7.89464 2.73478 8 3 8H4V19C4 19.7957 4.31607 20.5587 4.87868 21.1213C5.44129 21.6839 6.20435 22 7 22H17C17.7956 22 18.5587 21.6839 19.1213 21.1213C19.6839 20.5587 20 19.7957 20 19V8H21C21.2652 8 21.5196 7.89464 21.7071 7.70711C21.8946 7.51957 22 7.26522 22 7C22 6.73479 21.8946 6.48043 21.7071 6.29289C21.5196 6.10536 21.2652 6 21 6ZM10 4.33C10 4.17 10.21 4 10.5 4H13.5C13.79 4 14 4.17 14 4.33V6H10V4.33ZM18 19C18 19.2652 17.8946 19.5196 17.7071 19.7071C17.5196 19.8946 17.2652 20 17 20H7C6.73478 20 6.48043 19.8946 6.29289 19.7071C6.10536 19.5196 6 19.2652 6 19V8H18V19Z"/>
    </symbol>

    <!-- edit -->
    <symbol id="edit" viewBox="0 0 16 16">
        <g clip-path="url(#clip0_200_1081)">
            <path d="M12.6666 13.3333H3.33329C3.15648 13.3333 2.98691 13.4036 2.86189 13.5286C2.73686 13.6536 2.66663 13.8232 2.66663 14C2.66663 14.1768 2.73686 14.3464 2.86189 14.4714C2.98691 14.5964 3.15648 14.6666 3.33329 14.6666H12.6666C12.8434 14.6666 13.013 14.5964 13.138 14.4714C13.2631 14.3464 13.3333 14.1768 13.3333 14C13.3333 13.8232 13.2631 13.6536 13.138 13.5286C13.013 13.4036 12.8434 13.3333 12.6666 13.3333Z" />
            <path d="M3.33329 12H3.39329L6.17329 11.7467C6.47782 11.7163 6.76264 11.5821 6.97995 11.3667L12.98 5.36665C13.2128 5.12063 13.3387 4.79233 13.3299 4.45368C13.3212 4.11503 13.1786 3.79366 12.9333 3.55999L11.1066 1.73332C10.8682 1.50938 10.5558 1.38089 10.2288 1.37229C9.90187 1.36368 9.58314 1.47557 9.33329 1.68665L3.33329 7.68665C3.1178 7.90396 2.98362 8.18879 2.95329 8.49332L2.66662 11.2733C2.65764 11.371 2.67031 11.4694 2.70373 11.5616C2.73715 11.6538 2.79049 11.7374 2.85995 11.8067C2.92225 11.8684 2.99612 11.9173 3.07735 11.9505C3.15857 11.9837 3.24555 12.0005 3.33329 12ZM10.18 2.66665L12 4.48665L10.6666 5.78665L8.87995 3.99999L10.18 2.66665ZM4.24662 8.60665L7.99995 4.87999L9.79995 6.67999L6.06662 10.4133L4.06662 10.6L4.24662 8.60665Z" />
        </g>
    </symbol>

    <!-- playCircle -->
    <symbol id="playCircle" viewBox="0 0 24 24">
        <path d="M12 2C10.0222 2 8.08879 2.58649 6.4443 3.6853C4.79981 4.78412 3.51809 6.3459 2.76121 8.17317C2.00433 10.0004 1.8063 12.0111 2.19215 13.9509C2.578 15.8907 3.53041 17.6725 4.92894 19.0711C6.32746 20.4696 8.10929 21.422 10.0491 21.8079C11.9889 22.1937 13.9996 21.9957 15.8268 21.2388C17.6541 20.4819 19.2159 19.2002 20.3147 17.5557C21.4135 15.9112 22 13.9778 22 12C22 10.6868 21.7413 9.38642 21.2388 8.17317C20.7363 6.95991 19.9997 5.85752 19.0711 4.92893C18.1425 4.00035 17.0401 3.26375 15.8268 2.7612C14.6136 2.25866 13.3132 2 12 2ZM12 20C10.4178 20 8.87104 19.5308 7.55544 18.6518C6.23985 17.7727 5.21447 16.5233 4.60897 15.0615C4.00347 13.5997 3.84504 11.9911 4.15372 10.4393C4.4624 8.88743 5.22433 7.46197 6.34315 6.34315C7.46197 5.22433 8.88743 4.4624 10.4393 4.15372C11.9911 3.84504 13.5997 4.00346 15.0615 4.60896C16.5233 5.21447 17.7727 6.23984 18.6518 7.55544C19.5308 8.87103 20 10.4177 20 12C20 14.1217 19.1572 16.1566 17.6569 17.6569C16.1566 19.1571 14.1217 20 12 20Z"/>
        <path d="M12.34 7.45001C12.095 7.2242 11.789 7.07538 11.4601 7.02204C11.1312 6.96871 10.7938 7.0132 10.49 7.15001C10.1951 7.26932 9.94239 7.47385 9.76426 7.73748C9.58614 8.0011 9.49065 8.31185 9.49001 8.63001V15.37C9.49065 15.6882 9.58614 15.9989 9.76426 16.2625C9.94239 16.5262 10.1951 16.7307 10.49 16.85C10.7068 16.9483 10.942 16.9995 11.18 17C11.6089 16.9981 12.022 16.8379 12.34 16.55L16 13.18C16.1637 13.0301 16.2944 12.8478 16.3838 12.6446C16.4733 12.4415 16.5195 12.222 16.5195 12C16.5195 11.778 16.4733 11.5585 16.3838 11.3554C16.2944 11.1522 16.1637 10.9699 16 10.82L12.34 7.45001ZM11.5 14.6V9.40001L14.31 12L11.5 14.6Z"/>
    </symbol>

    <!-- more -->
    <symbol id="more" viewBox="0 0 24 24">
        <circle cx="12" cy="12" r="8.5" stroke="white"/>
        <g clip-path="url(#clip0_5928_6379)">
            <path d="M12 13C12.5523 13 13 12.5523 13 12C13 11.4477 12.5523 11 12 11C11.4477 11 11 11.4477 11 12C11 12.5523 11.4477 13 12 13Z" fill="white"/>
            <path d="M12 9.5C12.5523 9.5 13 9.05228 13 8.5C13 7.94772 12.5523 7.5 12 7.5C11.4477 7.5 11 7.94772 11 8.5C11 9.05228 11.4477 9.5 12 9.5Z" fill="white"/>
            <path d="M12 16.5C12.5523 16.5 13 16.0523 13 15.5C13 14.9477 12.5523 14.5 12 14.5C11.4477 14.5 11 14.9477 11 15.5C11 16.0523 11.4477 16.5 12 16.5Z" fill="white"/>
        </g>
    </symbol>

    <!-- trash bin -->
    <symbol id="trash-bin" viewBox="0 0 16 16">
        <g clip-path="url(#clip0_200_1087)">
            <path d="M14 3.99998H10.6667V2.88665C10.6511 2.45986 10.4668 2.05669 10.1544 1.76551C9.842 1.47433 9.42687 1.31891 9.00004 1.33332H7.00004C6.57321 1.31891 6.15808 1.47433 5.84566 1.76551C5.53324 2.05669 5.34901 2.45986 5.33337 2.88665V3.99998H2.00004C1.82323 3.99998 1.65366 4.07022 1.52864 4.19525C1.40361 4.32027 1.33337 4.48984 1.33337 4.66665C1.33337 4.84346 1.40361 5.01303 1.52864 5.13805C1.65366 5.26308 1.82323 5.33332 2.00004 5.33332H2.66671V12.6666C2.66671 13.1971 2.87742 13.7058 3.25249 14.0809C3.62757 14.4559 4.13627 14.6666 4.66671 14.6666H11.3334C11.8638 14.6666 12.3725 14.4559 12.7476 14.0809C13.1227 13.7058 13.3334 13.1971 13.3334 12.6666V5.33332H14C14.1769 5.33332 14.3464 5.26308 14.4714 5.13805C14.5965 5.01303 14.6667 4.84346 14.6667 4.66665C14.6667 4.48984 14.5965 4.32027 14.4714 4.19525C14.3464 4.07022 14.1769 3.99998 14 3.99998ZM6.66671 2.88665C6.66671 2.77998 6.80671 2.66665 7.00004 2.66665H9.00004C9.19337 2.66665 9.33337 2.77998 9.33337 2.88665V3.99998H6.66671V2.88665ZM12 12.6666C12 12.8435 11.9298 13.013 11.8048 13.1381C11.6798 13.2631 11.5102 13.3333 11.3334 13.3333H4.66671C4.4899 13.3333 4.32033 13.2631 4.1953 13.1381C4.07028 13.013 4.00004 12.8435 4.00004 12.6666V5.33332H12V12.6666Z"/>
        </g>
    </symbol>
</svg>
