<svg xmlns="http://www.w3.org/2000/svg" viewBox="0 0 125.08 31.27"><defs><style>.cls-1{fill:#bcbcbc;}.cls-2{fill:#686868;}</style></defs><title>no-cover</title><g id="Layer_2" data-name="Layer 2"><g id="Layer_1-2" data-name="Layer 1"><rect class="cls-1" width="125.08" height="31.27"/><path class="cls-2" d="M74.85,21H50.23a1.46,1.46,0,0,1-1.46-1.46V4.89a1.46,1.46,0,0,1,1.46-1.46H74.85a1.46,1.46,0,0,1,1.46,1.46V19.53A1.46,1.46,0,0,1,74.85,21ZM50.23,4.43a.45.45,0,0,0-.46.46V19.53a.45.45,0,0,0,.46.46H74.85a.45.45,0,0,0,.46-.46V4.89a.45.45,0,0,0-.46-.46Z"/><polygon class="cls-2" points="72.71 12.69 66.2 6.4 58.59 13.75 56.35 11.59 52.27 15.53 52.27 17.7 72.81 17.7 72.81 12.84 72.71 12.69"/><circle class="cls-2" cx="54.11" cy="8.25" r="1.85"/><path class="cls-2" d="M50.8,24.42a1.58,1.58,0,0,1,.42,1.19v2.21h-.36V25.63a1.34,1.34,0,0,0-.33-1,1.19,1.19,0,0,0-.9-.33,1.39,1.39,0,0,0-1.05.4,1.45,1.45,0,0,0-.38,1.07v2h-.37V24h.35v.82a1.51,1.51,0,0,1,.58-.62,1.82,1.82,0,0,1,.92-.23A1.49,1.49,0,0,1,50.8,24.42Z"/><path class="cls-2" d="M53.23,27.6a1.8,1.8,0,0,1-.68-.69,2.07,2.07,0,0,1,0-2,1.74,1.74,0,0,1,.68-.69,2,2,0,0,1,1-.25,1.93,1.93,0,0,1,1,.25,1.67,1.67,0,0,1,.68.69,2.07,2.07,0,0,1,0,2,1.74,1.74,0,0,1-.68.69,1.93,1.93,0,0,1-1,.24A2,2,0,0,1,53.23,27.6ZM55,27.32a1.51,1.51,0,0,0,.55-.57,1.73,1.73,0,0,0,.2-.83,1.69,1.69,0,0,0-.2-.82,1.46,1.46,0,0,0-1.32-.77,1.56,1.56,0,0,0-.78.2,1.58,1.58,0,0,0-.55.57,1.69,1.69,0,0,0-.2.82,1.73,1.73,0,0,0,.2.83,1.58,1.58,0,0,0,.55.57,1.56,1.56,0,0,0,.78.2A1.5,1.5,0,0,0,55,27.32Z"/><path class="cls-2" d="M59.59,27.6a1.74,1.74,0,0,1-.68-.69,2.09,2.09,0,0,1,0-2,1.71,1.71,0,0,1,.68-.68,1.91,1.91,0,0,1,1-.25,1.87,1.87,0,0,1,.83.18,1.53,1.53,0,0,1,.61.52l-.27.2a1.37,1.37,0,0,0-.5-.43,1.64,1.64,0,0,0-.67-.14,1.6,1.6,0,0,0-.79.2,1.35,1.35,0,0,0-.55.56,1.84,1.84,0,0,0,0,1.67,1.35,1.35,0,0,0,.55.56,1.6,1.6,0,0,0,.79.2,1.64,1.64,0,0,0,.67-.14,1.37,1.37,0,0,0,.5-.43l.27.2a1.53,1.53,0,0,1-.61.52,1.87,1.87,0,0,1-.83.17A2,2,0,0,1,59.59,27.6Z"/><path class="cls-2" d="M63.54,27.6a1.8,1.8,0,0,1-.68-.69,2.14,2.14,0,0,1,0-2,1.74,1.74,0,0,1,.68-.69,2,2,0,0,1,1.94,0,1.71,1.71,0,0,1,.67.69,2.07,2.07,0,0,1,0,2,1.78,1.78,0,0,1-.67.69,2.08,2.08,0,0,1-1.94,0Zm1.75-.28a1.48,1.48,0,0,0,.54-.57,1.73,1.73,0,0,0,.2-.83,1.69,1.69,0,0,0-.2-.82,1.48,1.48,0,0,0-.54-.57,1.62,1.62,0,0,0-1.56,0,1.48,1.48,0,0,0-.54.57,1.58,1.58,0,0,0-.2.82,1.62,1.62,0,0,0,.2.83,1.48,1.48,0,0,0,.54.57,1.62,1.62,0,0,0,1.56,0Z"/><path class="cls-2" d="M70.45,24l-1.71,3.79h-.37L66.67,24h.38l1.51,3.39L70.08,24Z"/><path class="cls-2" d="M74.33,26H71.07a1.59,1.59,0,0,0,.23.79,1.46,1.46,0,0,0,.57.53,1.66,1.66,0,0,0,.8.19,1.74,1.74,0,0,0,.69-.14,1.46,1.46,0,0,0,.53-.39l.2.24a1.64,1.64,0,0,1-.61.46,2.16,2.16,0,0,1-.81.15,2.07,2.07,0,0,1-1-.24,1.88,1.88,0,0,1-.69-.68,1.93,1.93,0,0,1-.25-1,2.11,2.11,0,0,1,.23-1,1.73,1.73,0,0,1,.65-.69,1.85,1.85,0,0,1,.93-.25,1.69,1.69,0,0,1,.92.25,1.68,1.68,0,0,1,.65.67,2,2,0,0,1,.23,1ZM71.81,24.5a1.44,1.44,0,0,0-.51.5,1.64,1.64,0,0,0-.22.73H74a1.64,1.64,0,0,0-.22-.73,1.44,1.44,0,0,0-.51-.5,1.53,1.53,0,0,0-1.44,0Z"/><path class="cls-2" d="M76.35,24.22a1.76,1.76,0,0,1,.9-.22v.36h-.09a1.25,1.25,0,0,0-1,.4,1.6,1.6,0,0,0-.35,1.09v2h-.36V24h.35v.83A1.26,1.26,0,0,1,76.35,24.22Z"/></g></g></svg>