<?xml version="1.0" encoding="UTF-8"?>
<svg id="Layer_2" data-name="Layer 2" xmlns="http://www.w3.org/2000/svg" viewBox="0 0 74.2 96.22">
  <defs>
    <style>
      .cls-1 {
        fill: #fff;
      }

      .cls-2 {
        fill: #704ecc;
      }

      .cls-3 {
        fill: #bea6ff;
      }

      .cls-4 {
        fill: #303233;
      }

      .cls-5 {
        fill: #397df6;
      }
    </style>
  </defs>
  <g id="Layer_1-2" data-name="Layer 1">
    <g>
      <g>
        <path class="cls-1" d="m29.37,92.72L1.34,28c-.51-1.18-.43-2.44.08-3.49.5-1.03,1.43-1.85,2.64-2.18l33.89-9.24c2-.55,4.09.46,4.92,2.36l28.03,64.71c.73,1.7.25,3.59-1.02,4.74-.47.43-1.04.75-1.7.93l-33.89,9.24c-2,.55-4.09-.46-4.92-2.36Z"/>
        <path class="cls-2" d="m29.37,92.72L1.34,28c-.51-1.18-.43-2.44.08-3.49.47-.43,1.04-.75,1.7-.93l33.89-9.24c2-.54,4.09.46,4.92,2.36l28.02,64.71c.51,1.18.43,2.44-.08,3.49-.47.43-1.04.75-1.7.93l-33.89,9.24c-2,.55-4.09-.46-4.92-2.36Z"/>
        <path class="cls-4" d="m71.05,80.56c.5,1.59,0,3.27-1.17,4.34-.47.43-1.04.75-1.7.93l-33.89,9.24c-2,.55-4.09-.46-4.92-2.36L1.34,28c-.06-.13-.11-.27-.15-.4-.34-1.06-.22-2.16.23-3.09.5-1.03,1.43-1.85,2.64-2.18l33.89-9.24c2-.55,4.09.46,4.92,2.36l28.03,64.71c.06.13.11.27.15.4m.95-.3c-.05-.17-.12-.33-.19-.5L43.78,15.05c-1.01-2.34-3.63-3.6-6.09-2.93L3.8,21.37c-1.43.39-2.63,1.38-3.27,2.71-.59,1.2-.69,2.56-.29,3.83.05.17.12.33.18.49l28.03,64.71c1.01,2.34,3.63,3.6,6.09,2.93l33.89-9.24c.8-.22,1.51-.6,2.11-1.15,1.49-1.35,2.06-3.47,1.45-5.38h0Z"/>
      </g>
      <g>
        <path class="cls-1" d="m28.76,77.66L25.2,5.5c-.06-1.31.47-2.5,1.34-3.32.85-.81,2.04-1.26,3.32-1.14l35.83,3.35c2.11.2,3.76,1.92,3.86,4.04l3.56,72.16c.09,1.89-1.05,3.53-2.69,4.18-.6.24-1.27.34-1.97.28l-35.83-3.35c-2.11-.2-3.76-1.92-3.86-4.04Z"/>
        <path class="cls-5" d="m28.76,77.66L25.2,5.5c-.06-1.31.47-2.5,1.34-3.32.6-.24,1.27-.35,1.97-.28l35.83,3.35c2.11.2,3.76,1.92,3.86,4.04l3.55,72.16c.06,1.31-.47,2.5-1.34,3.32-.6.24-1.27.34-1.97.28l-35.83-3.35c-2.11-.2-3.76-1.92-3.86-4.04Z"/>
        <path class="cls-4" d="m73.11,81.02c-.09,1.7-1.18,3.14-2.69,3.74-.6.24-1.27.34-1.97.28l-35.83-3.35c-2.11-.2-3.76-1.92-3.86-4.04L25.2,5.5c0-.15,0-.29,0-.44.06-1.13.56-2.15,1.34-2.88.85-.81,2.04-1.26,3.32-1.14l35.83,3.35c2.11.2,3.76,1.92,3.86,4.04l3.56,72.16c0,.15,0,.29,0,.44m1.02.05c0-.18,0-.36,0-.54l-3.56-72.16c-.13-2.61-2.19-4.76-4.79-5L29.96.02c-1.51-.14-3.01.38-4.12,1.42-1,.94-1.58,2.2-1.66,3.57,0,.18,0,.36,0,.54l3.56,72.16c.13,2.61,2.19,4.76,4.79,5l35.83,3.35c.84.08,1.66-.04,2.44-.35,1.92-.76,3.22-2.58,3.33-4.64h0Z"/>
      </g>
      <g>
        <path class="cls-1" d="m28.85,84.68L13.62,14.05c-.28-1.28.05-2.54.78-3.49.71-.93,1.81-1.58,3.09-1.67l35.9-2.51c2.12-.15,4.02,1.28,4.47,3.35l15.23,70.63c.4,1.85-.47,3.65-1.98,4.56-.55.33-1.2.55-1.9.59l-35.9,2.52c-2.12.15-4.02-1.28-4.47-3.35Z"/>
        <path class="cls-3" d="m28.85,84.68L13.62,14.05c-.28-1.28.05-2.54.78-3.49.55-.33,1.2-.55,1.9-.6l35.9-2.52c2.11-.15,4.02,1.28,4.47,3.36l15.23,70.62c.28,1.28-.05,2.54-.78,3.49-.55.33-1.2.55-1.9.59l-35.9,2.52c-2.12.15-4.02-1.28-4.47-3.35Z"/>
        <path class="cls-4" d="m73.18,81.49c-.07,1.43-.87,2.71-2.07,3.43-.55.33-1.2.55-1.9.59l-35.9,2.52c-2.12.15-4.02-1.28-4.47-3.35L13.62,14.05c-.08-.38-.11-.76-.09-1.13.05-.87.36-1.69.87-2.36.71-.93,1.81-1.58,3.09-1.67l35.9-2.51c2.12-.15,4.02,1.28,4.47,3.35l15.23,70.63c.08.38.11.76.09,1.13m1.02.05c.02-.47-.01-.94-.11-1.4L58.85,9.52c-.55-2.55-2.93-4.34-5.54-4.16l-35.9,2.51c-1.52.11-2.91.86-3.83,2.07-.65.85-1.02,1.86-1.08,2.93-.02.47.01.93.11,1.4l15.23,70.63c.55,2.55,2.93,4.34,5.54,4.16l35.9-2.52c.84-.06,1.63-.31,2.35-.74,1.51-.91,2.47-2.5,2.56-4.25h0Z"/>
      </g>
    </g>
  </g>
</svg>